<?xml version="1.0" encoding="utf-8"?>
<!-- Generator: Adobe Illustrator 24.3.0, SVG Export Plug-In . SVG Version: 6.00 Build 0)  -->
<svg version="1.1" id="Layer_1" xmlns="http://www.w3.org/2000/svg" xmlns:xlink="http://www.w3.org/1999/xlink" x="0px" y="0px"
	 viewBox="0 0 215.5 43" style="enable-background:new 0 0 215.5 43;" xml:space="preserve">
<style type="text/css">
	.st0{fill:#544667;}
	.st1{fill:url(#SVGID_1_);}
	.st2{fill:url(#SVGID_2_);}
	.st3{fill:url(#SVGID_3_);}
	.st4{fill:url(#SVGID_4_);}
	.st5{fill:url(#SVGID_5_);}
	.st6{fill:url(#SVGID_6_);}
	.st7{fill:url(#SVGID_7_);}
	.st8{fill:url(#SVGID_8_);}
	.st9{fill:url(#SVGID_9_);}
	.st10{fill:#EC2227;}
	.st11{fill:url(#SVGID_10_);}
	.st12{fill:url(#SVGID_11_);}
	.st13{fill:url(#SVGID_12_);}
	.st14{fill:url(#SVGID_13_);}
	.st15{fill:url(#SVGID_14_);}
	.st16{fill:url(#SVGID_15_);}
	.st17{fill:url(#SVGID_16_);}
	.st18{fill:url(#SVGID_17_);}
	.st19{fill:url(#SVGID_18_);}
	.st20{fill:url(#SVGID_19_);}
	.st21{fill:url(#SVGID_20_);}
	.st22{fill:url(#SVGID_21_);}
	.st23{fill:#FFFFFF;}
	.st24{font-family:'SweraDemoShadowed';}
	.st25{font-size:26.2957px;}
</style>
<g>
	<g>
		<path class="st0" d="M13.5,40.9c0.8,0.4,1.6,0.6,2.4,0.6c2.1,0,4.1-1.1,5.1-3.1c0.3-0.6,0.5-1.2,0.5-1.8l-3.8-0.1
			c0,0.1-0.1,0.1-0.1,0.2c-0.5,0.9-1.6,1.3-2.5,0.8c-0.9-0.5-1.3-1.6-0.8-2.5c0-0.1,0.1-0.2,0.1-0.2l-2.3-3c-0.5,0.4-0.8,1-1.1,1.5
			C9.6,36.2,10.7,39.5,13.5,40.9z"/>
		<path class="st0" d="M30.8,36.9c-0.5,0.9-1.6,1.3-2.5,0.8c-0.5-0.2-0.8-0.6-1-1.1l-3.8-0.1c0.2,1.9,1.3,3.6,3.1,4.5
			c0.8,0.4,1.6,0.6,2.4,0.6c2.1,0,4.1-1.1,5.1-3.1c1.1-2.2,0.6-4.9-1.1-6.5l-2.4,2.9C31.1,35.5,31.2,36.3,30.8,36.9z"/>
		<path class="st0" d="M2.9,23c-0.7,1.3-0.8,2.8-0.3,4.3c0.5,1.4,1.5,2.6,2.8,3.2C6.2,30.8,7,31,7.9,31.1c1.1,0,2.1-0.3,3-0.8
			l-2.3-3c-0.5,0.2-1,0.1-1.5-0.1c-0.9-0.5-1.3-1.6-0.8-2.5c0.4-0.7,1.1-1.1,1.8-1L8.9,20C6.5,19.5,4.1,20.7,2.9,23z"/>
		<path class="st0" d="M13.5,7.7C12.2,7,10.7,6.9,9.3,7.4C7.9,7.9,6.7,8.9,6,10.2c-0.7,1.3-0.8,2.8-0.3,4.3c0.5,1.4,1.5,2.6,2.8,3.2
			c0.3,0.1,0.6,0.2,0.9,0.3l0.9-3.6c0,0-0.1,0-0.1,0c-0.9-0.5-1.3-1.6-0.8-2.5c0.5-0.9,1.6-1.3,2.5-0.8c0.4,0.2,0.7,0.5,0.8,0.8
			l3.3-1.6C15.5,9.2,14.7,8.3,13.5,7.7z"/>
		<path class="st0" d="M39.7,15.5c0.7-1.3,0.8-2.8,0.3-4.3c-0.5-1.4-1.5-2.6-2.8-3.2c-2.3-1.1-4.7-0.5-6,0.6
			c-0.8,0.7-1.3,1.5-1.5,1.9l3.3,1.6c0.1-0.2,0.1-0.3,0.2-0.4c0.5-0.7,1.5-0.9,2.3-0.5c0.9,0.5,1.3,1.6,0.8,2.5
			c-0.2,0.5-0.6,0.8-1.2,1l0.8,3.6C37.6,18.1,39,17,39.7,15.5z"/>
		<path class="st0" d="M21.2,7.7c-0.5-1.6,1.1-3,2.6-2.3C24.7,5.9,25.1,7,24.7,8c0,0,0,0,0,0.1l3.3,1.6c0,0,0,0,0-0.1
			c1.4-2.8,0.3-6.1-2.5-7.5c-2.8-1.4-6.1-0.3-7.5,2.5c-0.8,1.5-0.8,3.3-0.1,4.8l3.3-1.6C21.2,7.8,21.2,7.8,21.2,7.7z"/>
		<path class="st0" d="M40,20.9c-1.1-0.5-2.2-0.7-3.3-0.5c-0.1,0-0.2,0-0.2,0l0.8,3.6c0.4-0.1,0.8,0,1.1,0.2
			c0.9,0.5,1.3,1.6,0.8,2.5c-0.5,0.9-1.6,1.3-2.5,0.9l-2.4,2.9c0.9,0.6,2,1,3.1,1c2,0,4.1-1.1,5.1-3.1c0.7-1.3,0.8-2.8,0.3-4.3
			C42.3,22.7,41.3,21.6,40,20.9z"/>
		<path class="st0" d="M12.1,21.3c-0.6-0.3-1.3-0.6-1.9-0.9c-0.4-0.2-0.9-0.3-1.3-0.4L8,23.6c0,0,0,0-0.1,0c0.1,0,0.3,0,0.4,0.1
			c0.5,0.2,1.1,0.4,1.6,0.7C11.1,23.2,11.8,22.1,12.1,21.3z"/>
		<path class="st0" d="M16.1,10.3l-3.3,1.6c0.1,0.1,0.1,0.3,0.2,0.5c0,0.1,0.2,0.5,0.3,1.3c1.5,0.2,2.8,0,3.7-0.2
			c-0.2-1-0.4-1.9-0.6-2.5c-0.2-0.5-0.4-0.9-0.7-1.4C15.8,9.8,15.9,10,16.1,10.3z"/>
		<path class="st0" d="M32.8,18.7c0.7,0,1.3,0,2,0c0.4,0,0.8-0.1,1.2-0.2l-0.8-3.6l0,0c-0.2,0.1-0.4,0.1-0.6,0.1c-0.1,0-0.7,0-1.3,0
			C32.9,16.4,32.8,17.7,32.8,18.7z"/>
		<path class="st0" d="M13.2,31.1c-0.4,0.2-0.7,0.5-1.1,0.8l2.3,3c0.1-0.2,0.3-0.4,0.6-0.5c0.4-0.3,0.9-0.5,1.4-0.7
			c-0.2-1.5-0.6-2.7-1-3.6C14.6,30.3,13.9,30.7,13.2,31.1z"/>
		<path class="st0" d="M23.6,36.6l3.8,0.1c-0.1-0.2-0.1-0.4-0.1-0.6c0.1-0.6,0.2-1.2,0.3-1.8c-1.3-0.8-2.6-1.2-3.4-1.4
			c-0.2,0.7-0.3,1.4-0.5,2.1c-0.1,0.3-0.1,0.7-0.1,1c0,0.4,0,0.8,0.1,1.1C23.6,37,23.6,36.8,23.6,36.6z"/>
		<path class="st0" d="M24.6,8c-0.2,0.4-0.6,0.9-1,1.4c0.8,1.3,1.8,2.2,2.5,2.8c0.7-0.8,1.4-1.7,1.8-2.6c0,0,0,0,0,0.1L24.6,8z"/>
		<path class="st0" d="M36.7,27.6C36.6,27.6,36.6,27.6,36.7,27.6c-0.4-0.2-1-0.9-1.5-1.5c-1.4,0.5-2.5,1.2-3.3,1.8
			c0.8,1,1.5,1.9,1.8,2.1c0.2,0.2,0.4,0.3,0.6,0.5L36.7,27.6z"/>
		<path class="st0" d="M28.4,17.9c0.1,2,0.5,4.1,1.3,6.1c0,0,0,0,0,0c0.8-0.7,3.1-2.2,3.1-2.2c-0.3-0.8-0.5-1.6-0.6-2.4
			c-0.5-3.1,0.2-6.1,0.8-7.2l-3.3-1.6c0,0,0,0.1-0.1,0.1c-0.4,0.9-0.8,2.4-1,3.4C28.7,13.9,28.4,16.5,28.4,17.9z"/>
		<path class="st0" d="M29.7,34.2L29.7,34.2c0.1,0.1,0.3,0.2,0.3,0.2c0.2,0.1,0.4,0.3,0.6,0.5c0,0,0,0,0,0l2.4-2.9c0,0,0,0,0,0
			c-0.2-0.2-0.4-0.3-0.6-0.5c-0.3-0.2-1.6-1-3-1.6c-0.5-0.2-3.6-1.1-3.6-1.1c-2.1-0.4-4.2-0.4-6.2-0.1c0,0,1.2,2.7,1.4,3.5
			c2.6-0.3,5.1,0.2,7.3,1.2C28.9,33.7,29.4,34.1,29.7,34.2z"/>
		<path class="st0" d="M20,12.6c-0.7,0.5-1.5,0.8-2.3,1.1c-1.6,0.7-3.2,0.9-4.4,1c0,0,0,0,0,0c-0.7,0-2.5,0.1-3.2-0.2c0,0,0,0,0,0
			L9.4,18c0.9,0.3,1.9,0.3,2.9,0.3c0.4,0,0.8,0,1.2,0c1.9-0.2,3.8-0.6,3.8-0.6c2-0.5,3.9-1.4,5.7-2.6C21.7,14.3,20,12.6,20,12.6z"/>
		<path class="st0" d="M12.8,21c-1.1,3.5-3.4,5.6-3.4,5.6l0,0c-0.1,0.1-0.1,0.1-0.2,0.2C9,27,8.8,27.2,8.5,27.3l2.3,3
			c0.3-0.2,0.7-0.5,0.9-0.7c0.7-0.7,1.4-1.5,2-2.4c0.9-1.3,1.9-3.4,1.9-3.3c0.9-2,1.3-4,1.5-6.1c0,0-1.9,0.4-3.8,0.6
			C13.3,19.7,13,20.6,12.8,21z"/>
		<path class="st0" d="M28.7,14.1c-0.9-0.3-1.6-0.7-2.2-1c-1.6-0.9-2.8-2-3.6-2.9c0,0,0,0,0,0c-0.5-0.5-1.3-1.6-1.7-2.3l-3.3,1.6
			c-0.2-0.4-0.1-0.1,0.2,0.4c0.2,0.6,1.3,2,1.9,2.7c0,0,1.6,1.8,2.8,2.6c1.7,1.2,3.6,2.2,5.6,2.8C28.4,16.5,28.7,13.9,28.7,14.1z"/>
		<path class="st0" d="M15.7,23.8c0,0-1,2-1.9,3.3c0.8,0.8,1.4,1.6,2,2.6c0,0,0,0,0,0c1.6,2.7,1.9,5.2,2,5.5c0,0,0,0,0,0
			c0.1,0.4,0.1,0.8,0,1.3l3.8,0.1l0,0c0.1-0.5,0.1-1,0-1.5c-0.1-0.8-0.2-1.5-0.4-2.3C21,32.6,21,32.4,21,32.3
			c-0.2-0.9-1.4-3.5-1.4-3.5C18.6,27,17.3,25.3,15.7,23.8z"/>
		<g>
			<path class="st0" d="M36.7,20.4L36.7,20.4C36.7,20.4,36.7,20.4,36.7,20.4C36.7,20.4,36.7,20.4,36.7,20.4z"/>
			<path class="st0" d="M36.9,24.1c0.1,0,0.2-0.1,0.3-0.1c0,0,0,0,0,0l-0.8-3.6c-1.1,0.2-2.7,0.9-3.6,1.4c0,0-2.3,1.4-3.1,2.2
				c0,0,0,0,0,0c-1.6,1.3-2.9,3-4,4.8c0,0,3.2,0.9,3.6,1.1c0.4-0.6,0.8-1.2,1.3-1.7c1.9-2.3,4.3-3.4,5-3.7
				C36.1,24.4,36.5,24.3,36.9,24.1z"/>
		</g>
	</g>
	<g>
		
			<linearGradient id="SVGID_1_" gradientUnits="userSpaceOnUse" x1="47.2834" y1="184.5666" x2="43.132" y2="182.0142" gradientTransform="matrix(0.9999 1.429852e-02 -1.429852e-02 0.9999 -27.1117 -147.0133)">
			<stop  offset="0" style="stop-color:#019547"/>
			<stop  offset="0.2173" style="stop-color:#1D9D48"/>
			<stop  offset="0.6922" style="stop-color:#36AD4A"/>
			<stop  offset="1" style="stop-color:#3DB54A"/>
		</linearGradient>
		<path class="st1" d="M14,40.7c0.8,0.4,1.6,0.6,2.4,0.6c2.1,0,4.1-1.1,5.1-3.1c0.3-0.6,0.5-1.2,0.5-1.8l-3.8-0.1
			c0,0.1-0.1,0.1-0.1,0.2c-0.5,0.9-1.6,1.3-2.5,0.8c-0.9-0.5-1.3-1.6-0.8-2.5c0-0.1,0.1-0.2,0.1-0.2l-2.3-3c-0.5,0.4-0.8,1-1.1,1.5
			C10.2,35.9,11.3,39.3,14,40.7z"/>
		
			<linearGradient id="SVGID_2_" gradientUnits="userSpaceOnUse" x1="57.1646" y1="183.2088" x2="62.6639" y2="182.6745" gradientTransform="matrix(0.9999 1.429852e-02 -1.429852e-02 0.9999 -27.1117 -147.0133)">
			<stop  offset="6.060610e-03" style="stop-color:#FCEE23"/>
			<stop  offset="1" style="stop-color:#D7DF28"/>
		</linearGradient>
		<path class="st2" d="M31.4,36.7c-0.5,0.9-1.6,1.3-2.5,0.8c-0.5-0.2-0.8-0.6-1-1.1l-3.8-0.1c0.2,1.9,1.3,3.6,3.1,4.5
			c0.8,0.4,1.6,0.6,2.4,0.6c2.1,0,4.1-1.1,5.1-3.1c1.1-2.2,0.6-4.9-1.1-6.5l-2.4,2.9C31.6,35.3,31.7,36,31.4,36.7z"/>
		
			<linearGradient id="SVGID_3_" gradientUnits="userSpaceOnUse" x1="36.3299" y1="169.4445" x2="36.7297" y2="174.0264" gradientTransform="matrix(0.9999 1.429852e-02 -1.429852e-02 0.9999 -27.1117 -147.0133)">
			<stop  offset="1.212120e-02" style="stop-color:#29AAE1"/>
			<stop  offset="8.923212e-02" style="stop-color:#27A4DD"/>
			<stop  offset="0.4873" style="stop-color:#238ACB"/>
			<stop  offset="0.7982" style="stop-color:#217BC0"/>
			<stop  offset="0.9818" style="stop-color:#2075BC"/>
		</linearGradient>
		<path class="st3" d="M3.5,22.8c-0.7,1.3-0.8,2.8-0.3,4.3c0.5,1.4,1.5,2.6,2.8,3.2c0.8,0.4,1.6,0.6,2.4,0.6c1.1,0,2.1-0.3,3-0.8
			l-2.3-3c-0.5,0.2-1,0.1-1.5-0.1c-0.9-0.5-1.3-1.6-0.8-2.5c0.4-0.7,1.1-1.1,1.8-1l0.9-3.6C7.1,19.3,4.6,20.5,3.5,22.8z"/>
		
			<linearGradient id="SVGID_4_" gradientUnits="userSpaceOnUse" x1="39.2152" y1="159.8226" x2="41.0911" y2="156.2247" gradientTransform="matrix(0.9999 1.429852e-02 -1.429852e-02 0.9999 -27.1117 -147.0133)">
			<stop  offset="0" style="stop-color:#7F4FA0"/>
			<stop  offset="1" style="stop-color:#4C489E"/>
		</linearGradient>
		<path class="st4" d="M14.1,7.5c-1.3-0.7-2.8-0.8-4.3-0.3C8.4,7.7,7.3,8.7,6.6,10c-0.7,1.3-0.8,2.8-0.3,4.3
			c0.5,1.4,1.5,2.6,2.8,3.2c0.3,0.1,0.6,0.2,0.9,0.3l0.9-3.6c0,0-0.1,0-0.1,0c-0.9-0.5-1.3-1.6-0.8-2.5c0.5-0.9,1.6-1.3,2.5-0.8
			c0.4,0.2,0.7,0.5,0.8,0.8l3.3-1.6C16.1,9,15.2,8.1,14.1,7.5z"/>
		
			<linearGradient id="SVGID_5_" gradientUnits="userSpaceOnUse" x1="59.6499" y1="158.8491" x2="70.2442" y2="158.8491" gradientTransform="matrix(0.9999 1.429852e-02 -1.429852e-02 0.9999 -27.1117 -147.0133)">
			<stop  offset="0.1758" style="stop-color:#EF4237"/>
			<stop  offset="1" style="stop-color:#EC2227"/>
		</linearGradient>
		<path class="st5" d="M40.3,15.3c0.7-1.3,0.8-2.8,0.3-4.3c-0.5-1.4-1.5-2.6-2.8-3.2c-2.3-1.1-4.7-0.5-6,0.6
			c-0.8,0.7-1.3,1.5-1.5,1.9l3.3,1.6c0.1-0.2,0.1-0.3,0.2-0.4c0.5-0.7,1.5-0.9,2.3-0.5c0.9,0.5,1.3,1.6,0.8,2.5
			c-0.2,0.5-0.6,0.8-1.2,1l0.8,3.6C38.2,17.9,39.5,16.8,40.3,15.3z"/>
		
			<linearGradient id="SVGID_6_" gradientUnits="userSpaceOnUse" x1="55.7459" y1="152.687" x2="51.7175" y2="151.826" gradientTransform="matrix(0.9999 1.429852e-02 -1.429852e-02 0.9999 -27.1117 -147.0133)">
			<stop  offset="0.2727" style="stop-color:#EB0D8C"/>
			<stop  offset="0.9818" style="stop-color:#BE202E"/>
		</linearGradient>
		<path class="st6" d="M21.7,7.5c-0.5-1.6,1.1-3,2.6-2.3c0.9,0.5,1.3,1.6,0.8,2.5c0,0,0,0,0,0.1l3.3,1.6c0,0,0,0,0-0.1
			c1.4-2.8,0.3-6.1-2.5-7.5c-2.8-1.4-6.1-0.3-7.5,2.5c-0.8,1.5-0.8,3.3-0.1,4.8l3.3-1.6C21.8,7.6,21.7,7.6,21.7,7.5z"/>
		
			<linearGradient id="SVGID_7_" gradientUnits="userSpaceOnUse" x1="68.9142" y1="169.1603" x2="68.8527" y2="172.543" gradientTransform="matrix(0.9999 1.429852e-02 -1.429852e-02 0.9999 -27.1117 -147.0133)">
			<stop  offset="6.060640e-03" style="stop-color:#FBB042"/>
			<stop  offset="0.9212" style="stop-color:#F89521"/>
		</linearGradient>
		<path class="st7" d="M40.5,20.7c-1.1-0.5-2.2-0.7-3.3-0.5c-0.1,0-0.2,0-0.2,0l0.8,3.6c0.4-0.1,0.8,0,1.1,0.2
			c0.9,0.5,1.3,1.6,0.8,2.5c-0.5,0.9-1.6,1.3-2.5,0.9l-2.4,2.9c0.9,0.6,2,1,3.1,1c2,0,4.1-1.1,5.1-3.1c0.7-1.3,0.8-2.8,0.3-4.3
			C42.8,22.5,41.8,21.4,40.5,20.7z"/>
		
			<linearGradient id="SVGID_8_" gradientUnits="userSpaceOnUse" x1="40.565" y1="169.197" x2="50.5291" y2="181.4676" gradientTransform="matrix(0.9999 1.429852e-02 -1.429852e-02 0.9999 -27.1117 -147.0133)">
			<stop  offset="0" style="stop-color:#29AAE1"/>
			<stop  offset="1" style="stop-color:#019547"/>
		</linearGradient>
		<path class="st8" d="M12.7,21.1c-0.6-0.3-1.3-0.6-1.9-0.9c-0.4-0.2-0.9-0.3-1.3-0.4l-0.9,3.6c0,0,0,0-0.1,0c0.1,0,0.3,0,0.4,0.1
			c0.5,0.2,1.1,0.4,1.6,0.7C11.7,23,12.3,21.9,12.7,21.1z"/>
		
			<linearGradient id="SVGID_9_" gradientUnits="userSpaceOnUse" x1="43.9359" y1="161.2741" x2="40.3381" y2="172.1137" gradientTransform="matrix(0.9999 1.429852e-02 -1.429852e-02 0.9999 -27.1117 -147.0133)">
			<stop  offset="0" style="stop-color:#4C489E"/>
			<stop  offset="0.9455" style="stop-color:#2075BC"/>
		</linearGradient>
		<path class="st9" d="M16.6,10.1l-3.3,1.6c0.1,0.1,0.1,0.3,0.2,0.5c0,0.1,0.2,0.5,0.3,1.3c1.5,0.2,2.8,0,3.7-0.2
			c-0.2-1-0.4-1.9-0.6-2.5c-0.2-0.5-0.4-0.9-0.7-1.4C16.3,9.6,16.5,9.8,16.6,10.1z"/>
		<path class="st10" d="M33.3,18.4c0.7,0,1.3,0,2,0c0.4,0,0.8-0.1,1.2-0.2l-0.8-3.6l0,0c-0.2,0.1-0.4,0.1-0.6,0.1
			c-0.1,0-0.7,0-1.3,0C33.4,16.2,33.3,17.5,33.3,18.4z"/>
		
			<linearGradient id="SVGID_10_" gradientUnits="userSpaceOnUse" x1="44.5518" y1="178.6891" x2="55.6838" y2="176.0753" gradientTransform="matrix(0.9999 1.429852e-02 -1.429852e-02 0.9999 -27.1117 -147.0133)">
			<stop  offset="0" style="stop-color:#3DB54A"/>
			<stop  offset="0.5568" style="stop-color:#229F49"/>
			<stop  offset="1" style="stop-color:#019547"/>
		</linearGradient>
		<path class="st11" d="M13.7,30.9c-0.4,0.2-0.7,0.5-1.1,0.8l2.3,3c0.1-0.2,0.3-0.4,0.6-0.5c0.4-0.3,0.9-0.5,1.4-0.7
			c-0.2-1.5-0.6-2.7-1-3.6C15.1,30.1,14.4,30.4,13.7,30.9z"/>
		
			<linearGradient id="SVGID_11_" gradientUnits="userSpaceOnUse" x1="56.3177" y1="180.4445" x2="66.9827" y2="169.581" gradientTransform="matrix(0.9999 1.429852e-02 -1.429852e-02 0.9999 -27.1117 -147.0133)">
			<stop  offset="6.060610e-03" style="stop-color:#FCEE23"/>
			<stop  offset="0.9939" style="stop-color:#FBB042"/>
		</linearGradient>
		<path class="st12" d="M24.1,36.4l3.8,0.1c-0.1-0.2-0.1-0.4-0.1-0.6c0.1-0.6,0.2-1.2,0.3-1.8c-1.3-0.8-2.6-1.2-3.4-1.4
			c-0.2,0.7-0.3,1.4-0.5,2.1c-0.1,0.3-0.1,0.7-0.1,1c0,0.4,0,0.8,0.1,1.1C24.2,36.7,24.1,36.6,24.1,36.4z"/>
		
			<linearGradient id="SVGID_12_" gradientUnits="userSpaceOnUse" x1="41.552" y1="163.3837" x2="56.0366" y2="155.7262" gradientTransform="matrix(0.9999 1.429852e-02 -1.429852e-02 0.9999 -27.1117 -147.0133)">
			<stop  offset="0.1939" style="stop-color:#7F4FA0"/>
			<stop  offset="0.9758" style="stop-color:#EB0D8C"/>
		</linearGradient>
		<path class="st13" d="M25.2,7.8c-0.2,0.4-0.6,0.9-1,1.4c0.8,1.3,1.8,2.2,2.5,2.8c0.7-0.8,1.4-1.7,1.8-2.6c0,0,0,0,0,0.1L25.2,7.8z
			"/>
		
			<linearGradient id="SVGID_13_" gradientUnits="userSpaceOnUse" x1="59.9472" y1="159.1433" x2="64.929" y2="175.2573" gradientTransform="matrix(0.9999 1.429852e-02 -1.429852e-02 0.9999 -27.1117 -147.0133)">
			<stop  offset="0.1758" style="stop-color:#EF4237"/>
			<stop  offset="0.9212" style="stop-color:#F89521"/>
		</linearGradient>
		<path class="st14" d="M37.2,27.4C37.2,27.4,37.2,27.4,37.2,27.4c-0.4-0.2-1-0.9-1.5-1.5c-1.4,0.5-2.5,1.2-3.3,1.8
			c0.8,1,1.5,1.9,1.8,2.1c0.2,0.2,0.4,0.3,0.6,0.5L37.2,27.4z"/>
		
			<linearGradient id="SVGID_14_" gradientUnits="userSpaceOnUse" x1="59.8522" y1="159.173" x2="64.834" y2="175.2869" gradientTransform="matrix(0.9999 1.429852e-02 -1.429852e-02 0.9999 -27.1117 -147.0133)">
			<stop  offset="0.1758" style="stop-color:#EF4237"/>
			<stop  offset="0.9212" style="stop-color:#F89521"/>
		</linearGradient>
		<path class="st15" d="M29,17.7c0.1,2,0.5,4.1,1.3,6.1c0,0,0,0,0,0c0.8-0.7,3.1-2.2,3.1-2.2c-0.3-0.8-0.5-1.6-0.6-2.4
			c-0.5-3.1,0.2-6.1,0.8-7.2l-3.3-1.6c0,0,0,0.1-0.1,0.1c-0.4,0.9-0.8,2.4-1,3.4C29.3,13.7,29,16.3,29,17.7z"/>
		
			<linearGradient id="SVGID_15_" gradientUnits="userSpaceOnUse" x1="50.275" y1="175.9907" x2="59.4697" y2="178.1125" gradientTransform="matrix(0.9999 1.429852e-02 -1.429852e-02 0.9999 -27.1117 -147.0133)">
			<stop  offset="0" style="stop-color:#3DB54A"/>
			<stop  offset="8.528042e-02" style="stop-color:#55B949"/>
			<stop  offset="0.5216" style="stop-color:#A0CC3D"/>
			<stop  offset="0.838" style="stop-color:#C8DA2F"/>
			<stop  offset="1" style="stop-color:#D7DF28"/>
		</linearGradient>
		<path class="st16" d="M30.3,34L30.3,34c0.1,0.1,0.3,0.2,0.3,0.2c0.2,0.1,0.4,0.3,0.6,0.5c0,0,0,0,0,0l2.4-2.9c0,0,0,0,0,0
			c-0.2-0.2-0.4-0.3-0.6-0.5c-0.3-0.2-1.6-1-3-1.6c-0.5-0.2-3.6-1.1-3.6-1.1c-2.1-0.4-4.2-0.4-6.2-0.1c0,0,1.2,2.7,1.4,3.5
			c2.6-0.3,5.1,0.2,7.3,1.2C29.4,33.5,30,33.8,30.3,34z"/>
		
			<linearGradient id="SVGID_16_" gradientUnits="userSpaceOnUse" x1="41.6554" y1="163.5775" x2="56.1391" y2="155.9205" gradientTransform="matrix(0.9999 1.429852e-02 -1.429852e-02 0.9999 -27.1117 -147.0133)">
			<stop  offset="0.1939" style="stop-color:#7F4FA0"/>
			<stop  offset="0.9758" style="stop-color:#EB0D8C"/>
		</linearGradient>
		<path class="st17" d="M20.6,12.3c-0.7,0.5-1.5,0.8-2.3,1.1c-1.6,0.7-3.2,0.9-4.4,1c0,0,0,0,0,0c-0.7,0-2.5,0.1-3.2-0.2
			c0,0,0,0,0,0L10,17.8c0.9,0.3,1.9,0.3,2.9,0.3c0.4,0,0.8,0,1.2,0c1.9-0.2,3.8-0.6,3.8-0.6c2-0.5,3.9-1.4,5.7-2.6
			C22.2,14.1,20.6,12.3,20.6,12.3z"/>
		
			<linearGradient id="SVGID_17_" gradientUnits="userSpaceOnUse" x1="45.5695" y1="161.8163" x2="42.1273" y2="172.1871" gradientTransform="matrix(0.9999 1.429852e-02 -1.429852e-02 0.9999 -27.1117 -147.0133)">
			<stop  offset="0" style="stop-color:#4C489E"/>
			<stop  offset="1" style="stop-color:#2075BC"/>
		</linearGradient>
		<path class="st18" d="M13.4,20.8c-1.1,3.5-3.4,5.6-3.4,5.6l0,0c-0.1,0.1-0.1,0.1-0.2,0.2c-0.2,0.2-0.4,0.4-0.7,0.4l2.3,3
			c0.3-0.2,0.7-0.5,0.9-0.7c0.7-0.7,1.4-1.5,2-2.4c0.9-1.3,1.9-3.4,1.9-3.3c0.9-2,1.3-4,1.5-6.1c0,0-1.9,0.4-3.8,0.6
			C13.8,19.5,13.5,20.4,13.4,20.8z"/>
		
			<linearGradient id="SVGID_18_" gradientUnits="userSpaceOnUse" x1="50.4058" y1="154.9699" x2="57.7246" y2="163.1804" gradientTransform="matrix(0.9999 1.429852e-02 -1.429852e-02 0.9999 -27.1117 -147.0133)">
			<stop  offset="0" style="stop-color:#BE202E"/>
			<stop  offset="0.4182" style="stop-color:#CC212C"/>
			<stop  offset="1" style="stop-color:#EC2227"/>
		</linearGradient>
		<path class="st19" d="M29.3,13.9c-0.9-0.3-1.6-0.7-2.2-1c-1.6-0.9-2.8-2-3.6-2.9c0,0,0,0,0,0c-0.5-0.5-1.3-1.6-1.7-2.3l-3.3,1.6
			c-0.2-0.4-0.1-0.1,0.2,0.4c0.2,0.6,1.3,2,1.9,2.7c0,0,1.6,1.8,2.8,2.6c1.7,1.2,3.6,2.2,5.6,2.8C29,16.3,29.3,13.7,29.3,13.9z"/>
		
			<linearGradient id="SVGID_19_" gradientUnits="userSpaceOnUse" x1="46.7563" y1="173.1792" x2="49.401" y2="181.9125" gradientTransform="matrix(0.9999 1.429852e-02 -1.429852e-02 0.9999 -27.1117 -147.0133)">
			<stop  offset="0" style="stop-color:#29AAE1"/>
			<stop  offset="1" style="stop-color:#019547"/>
		</linearGradient>
		<path class="st20" d="M16.3,23.6c0,0-1,2-1.9,3.3c0.8,0.8,1.4,1.6,2,2.6c0,0,0,0,0,0c1.6,2.7,1.9,5.2,2,5.5c0,0,0,0,0,0
			c0.1,0.4,0.1,0.8,0,1.3l3.8,0.1l0,0c0.1-0.5,0.1-1,0-1.5c-0.1-0.8-0.2-1.5-0.4-2.3c-0.1-0.2-0.1-0.4-0.1-0.5
			c-0.2-0.9-1.4-3.5-1.4-3.5C19.1,26.7,17.8,25.1,16.3,23.6z"/>
		<g>
			
				<linearGradient id="SVGID_20_" gradientUnits="userSpaceOnUse" x1="55.5321" y1="177.6231" x2="65.1836" y2="167.7921" gradientTransform="matrix(0.9999 1.429852e-02 -1.429852e-02 0.9999 -27.1117 -147.0133)">
				<stop  offset="6.060610e-03" style="stop-color:#FCEE23"/>
				<stop  offset="0.9939" style="stop-color:#FBB042"/>
			</linearGradient>
			<path class="st21" d="M37.2,20.2L37.2,20.2C37.2,20.2,37.2,20.2,37.2,20.2C37.2,20.2,37.2,20.2,37.2,20.2z"/>
			
				<linearGradient id="SVGID_21_" gradientUnits="userSpaceOnUse" x1="55.813" y1="177.8094" x2="65.4258" y2="168.0176" gradientTransform="matrix(0.9999 1.429852e-02 -1.429852e-02 0.9999 -27.1117 -147.0133)">
				<stop  offset="6.060610e-03" style="stop-color:#FCEE23"/>
				<stop  offset="0.9939" style="stop-color:#FBB042"/>
			</linearGradient>
			<path class="st22" d="M37.4,23.9c0.1,0,0.2-0.1,0.3-0.1c0,0,0,0,0,0L37,20.2c-1.1,0.2-2.7,0.9-3.6,1.4c0,0-2.3,1.4-3.1,2.2
				c0,0,0,0,0,0c-1.6,1.3-2.9,3-4,4.8c0,0,3.2,0.9,3.6,1.1c0.4-0.6,0.8-1.2,1.3-1.7c1.9-2.3,4.3-3.4,5-3.7
				C36.6,24.2,37,24,37.4,23.9z"/>
		</g>
	</g>
</g>
<text transform="matrix(1 0 0 1 45.9824 29.6914)" class="st23 st24 st25">SOCIALNFT</text>
</svg>
