<?xml version="1.0" encoding="utf-8"?>
<!-- Generator: Adobe Illustrator 24.3.0, SVG Export Plug-In . SVG Version: 6.00 Build 0)  -->
<svg version="1.1" id="Layer_1" xmlns="http://www.w3.org/2000/svg" xmlns:xlink="http://www.w3.org/1999/xlink" x="0px" y="0px"
	 viewBox="0 0 385.5 88.8" style="enable-background:new 0 0 385.5 88.8;" xml:space="preserve">
<style type="text/css">
	.st0{fill:#544667;}
	.st1{fill:url(#SVGID_1_);}
	.st2{fill:url(#SVGID_2_);}
	.st3{fill:url(#SVGID_3_);}
	.st4{fill:url(#SVGID_4_);}
	.st5{fill:url(#SVGID_5_);}
	.st6{fill:url(#SVGID_6_);}
	.st7{fill:url(#SVGID_7_);}
	.st8{fill:url(#SVGID_8_);}
	.st9{fill:url(#SVGID_9_);}
	.st10{fill:#EC2227;}
	.st11{fill:url(#SVGID_10_);}
	.st12{fill:url(#SVGID_11_);}
	.st13{fill:url(#SVGID_12_);}
	.st14{fill:url(#SVGID_13_);}
	.st15{fill:url(#SVGID_14_);}
	.st16{fill:url(#SVGID_15_);}
	.st17{fill:url(#SVGID_16_);}
	.st18{fill:url(#SVGID_17_);}
	.st19{fill:url(#SVGID_18_);}
	.st20{fill:url(#SVGID_19_);}
	.st21{fill:url(#SVGID_20_);}
	.st22{fill:url(#SVGID_21_);}
	.st23{fill:#1C75BC;}
</style>
<g>
	<g>
		<path class="st0" d="M24.8,82c1.6,0.8,3.2,1.2,4.8,1.2c4.2,0.1,8.2-2.2,10.2-6.2c0.6-1.1,0.9-2.4,1.1-3.6l-7.5-0.1
			c0,0.1-0.1,0.3-0.2,0.4c-0.9,1.9-3.2,2.6-5.1,1.7c-1.9-0.9-2.6-3.2-1.7-5.1c0.1-0.2,0.2-0.3,0.3-0.5l-4.6-5.9
			c-0.9,0.9-1.7,1.9-2.3,3.1C17.1,72.5,19.3,79.2,24.8,82z"/>
		<path class="st0" d="M59.6,74c-0.9,1.9-3.2,2.6-5.1,1.7c-0.9-0.5-1.6-1.3-1.9-2.2L45,73.4c0.4,3.8,2.6,7.2,6.1,8.9
			c1.6,0.8,3.2,1.2,4.8,1.2c4.2,0.1,8.2-2.2,10.2-6.2c2.2-4.5,1.2-9.8-2.3-13.1L59.2,70C60.1,71.1,60.3,72.7,59.6,74z"/>
		<path class="st0" d="M3.7,46.1c-1.3,2.7-1.5,5.7-0.6,8.5C4,57.4,6,59.7,8.7,61c1.6,0.8,3.2,1.2,4.9,1.2c2.2,0,4.2-0.6,6-1.7
			l-4.6-6C14,55,13,54.9,12,54.4c-1.9-0.9-2.6-3.2-1.7-5.1c0.7-1.4,2.2-2.2,3.6-2.1l1.8-7.2C10.9,39.2,6,41.5,3.7,46.1z"/>
		<path class="st0" d="M24.9,15.5c-2.7-1.3-5.7-1.5-8.5-0.6c-2.8,0.9-5.1,2.9-6.5,5.6c-1.3,2.7-1.5,5.7-0.6,8.5
			c0.9,2.8,2.9,5.1,5.6,6.5c0.6,0.3,1.1,0.5,1.7,0.7l1.8-7.2c-0.1,0-0.1,0-0.2-0.1c-1.9-0.9-2.6-3.2-1.7-5.1
			c0.9-1.9,3.2-2.6,5.1-1.7c0.7,0.4,1.3,1,1.7,1.7l6.7-3.1C29,18.4,27.2,16.6,24.9,15.5z"/>
		<path class="st0" d="M77.4,31.2c1.3-2.7,1.5-5.7,0.6-8.5c-0.9-2.8-2.9-5.1-5.6-6.5c-4.5-2.3-9.4-1-12,1.3
			c-1.7,1.4-2.5,2.9-2.9,3.8l6.6,3.3c0.1-0.3,0.3-0.5,0.4-0.7c1-1.3,3-1.9,4.7-1c1.9,0.9,2.6,3.2,1.7,5.1c-0.5,1-1.3,1.6-2.3,1.9
			L70,37C73.2,36.3,75.9,34.1,77.4,31.2z"/>
		<path class="st0" d="M40.3,15.5c-1-3.2,2.3-6.1,5.3-4.6c1.9,0.9,2.6,3.2,1.7,5.1c0,0,0,0.1-0.1,0.1l6.6,3.3c0,0,0-0.1,0.1-0.1
			c2.8-5.5,0.5-12.2-5-15c-5.5-2.8-12.2-0.5-15,5c-1.5,3-1.5,6.6-0.1,9.7l6.7-3.1C40.4,15.7,40.3,15.6,40.3,15.5z"/>
		<path class="st0" d="M77.9,41.9c-2.1-1.1-4.5-1.3-6.6-1c-0.2,0-0.3,0-0.5,0.1l1.5,7.2c0.8-0.1,1.5,0,2.2,0.4
			c1.9,0.9,2.6,3.2,1.7,5.1c-0.9,1.8-3.2,2.6-5,1.7l-4.7,5.8c1.8,1.3,4,2,6.2,2c4.1,0.1,8.1-2.1,10.2-6.2c1.3-2.7,1.5-5.7,0.6-8.5
			C82.6,45.5,80.6,43.2,77.9,41.9z"/>
		<path class="st0" d="M22.2,42.7c-1.2-0.7-2.5-1.3-3.9-1.8c-0.9-0.4-1.7-0.7-2.6-0.8L14,47.3c0,0-0.1,0-0.1,0c0.3,0,0.5,0,0.8,0.1
			c1.1,0.4,2.2,0.8,3.2,1.4C20.1,46.6,21.4,44.3,22.2,42.7z"/>
		<path class="st0" d="M30,20.7l-6.7,3.1c0.1,0.3,0.2,0.6,0.3,0.9c0.1,0.3,0.4,1.1,0.7,2.5c3,0.3,5.6,0,7.4-0.5
			c-0.4-2-0.9-3.9-1.3-5c-0.3-1-0.8-1.9-1.4-2.7C29.5,19.6,29.8,20.1,30,20.7z"/>
		<path class="st0" d="M63.5,37.4c1.3,0.1,2.6,0.1,4.1,0c0.8,0,1.6-0.1,2.4-0.3l-1.5-7.3l0,0c-0.4,0.1-0.8,0.2-1.2,0.2
			c-0.2,0-1.3,0-2.6,0C63.8,32.9,63.5,35.5,63.5,37.4z"/>
		<path class="st0" d="M24.2,62.3c-0.8,0.4-1.5,1-2.1,1.6l4.6,5.9c0.3-0.4,0.7-0.8,1.1-1.1c0.9-0.5,1.8-1,2.8-1.5
			c-0.3-3-1.2-5.5-2-7.2C27.1,60.7,25.6,61.4,24.2,62.3z"/>
		<path class="st0" d="M45,73.4l7.5,0.1c-0.1-0.4-0.2-0.7-0.2-1.1c0.1-1.2,0.4-2.4,0.6-3.6c-2.6-1.6-5.1-2.4-6.9-2.8
			c-0.4,1.4-0.7,2.8-0.9,4.3c-0.2,0.6-0.2,1.5-0.2,1.9c0,0.8,0.1,1.5,0.2,2.2C45.1,74.1,45.1,73.7,45,73.4z"/>
		<path class="st0" d="M47.2,16.1c-0.5,0.9-1.2,1.9-2,2.8c1.6,2.6,3.5,4.4,5,5.5c1.3-1.5,2.8-3.4,3.7-5.2c0,0,0,0.1-0.1,0.1
			L47.2,16.1z"/>
		<path class="st0" d="M71.3,55.3C71.3,55.3,71.3,55.3,71.3,55.3c-0.9-0.4-2-1.7-3-2.9c-2.8,1-5,2.4-6.5,3.6
			c1.5,2.1,3.1,3.7,3.6,4.1c0.4,0.4,0.8,0.7,1.2,1L71.3,55.3z"/>
		<path class="st0" d="M54.8,35.9c0.2,4.1,1,8.3,2.6,12.2c0,0,0,0,0,0c1.7-1.5,6.3-4.3,6.3-4.3c-0.5-1.6-0.9-3.2-1.2-4.8
			c-1.1-6.2,0.5-12.2,1.5-14.5l-6.6-3.3c0,0.1-0.1,0.2-0.1,0.2c-0.9,1.9-1.6,4.8-2,6.8C55.4,27.9,54.8,33.2,54.8,35.9z"/>
		<path class="st0" d="M57.4,68.6L57.4,68.6c0.3,0.2,0.5,0.3,0.7,0.4c0.5,0.3,0.8,0.6,1.1,1c0,0,0,0,0,0l4.7-5.8c0,0,0,0,0,0
			c-0.4-0.3-0.7-0.7-1.2-1c-0.6-0.5-3.1-2.1-6-3.3c-0.9-0.4-7.3-2.2-7.3-2.2c-4.1-0.8-8.4-0.8-12.5-0.2c0,0,2.4,5.3,2.8,7.1
			c5.3-0.5,10.1,0.3,14.6,2.3C55.7,67.6,56.8,68.2,57.4,68.6z"/>
		<path class="st0" d="M38,25.2c-1.5,0.9-3,1.6-4.5,2.3c-3.2,1.3-6.4,1.8-8.8,1.9c0,0,0,0,0,0c-1.5,0.1-4.9,0.1-6.3-0.5c0,0,0,0,0,0
			l-1.8,7.2c1.8,0.5,3.8,0.7,5.7,0.7c0.8,0,1.6,0,2.3,0c3.8-0.3,7.5-1.2,7.5-1.2c4.1-1.1,7.9-2.9,11.4-5.3
			C41.3,28.7,38,25.2,38,25.2z"/>
		<path class="st0" d="M23.6,42.1c-2.2,6.9-6.8,11.2-6.8,11.2l0,0c-0.1,0.1-0.3,0.3-0.4,0.4c-0.4,0.4-0.9,0.7-1.4,0.9l4.6,6
			c0.7-0.4,1.3-0.9,1.9-1.5c1.5-1.5,2.9-3.1,4.1-4.7c1.9-2.6,3.8-6.7,3.8-6.6c1.7-4,2.7-8.1,3-12.2c0,0-3.7,0.9-7.5,1.2
			C24.4,39.6,23.8,41.3,23.6,42.1z"/>
		<path class="st0" d="M55.4,28.3c-1.8-0.7-3.2-1.4-4.4-2c-3.2-1.7-5.6-4-7.2-5.8c0,0,0,0,0,0c-1-1.1-2.7-3.2-3.4-4.7L33.7,19
			c-0.4-0.8-0.2-0.2,0.4,0.8c0.5,1.2,2.6,4,3.9,5.4c0,0,3.3,3.6,5.6,5.2c3.4,2.5,7.2,4.4,11.2,5.6C54.8,33.2,55.4,27.9,55.4,28.3z"
			/>
		<path class="st0" d="M29.3,47.7c0-0.1-1.9,4-3.8,6.6c1.5,1.5,2.9,3.3,4.1,5.3c0,0,0,0,0,0c3.3,5.5,3.8,10.3,3.9,11.1c0,0,0,0,0,0
			c0.1,0.8,0.2,1.6-0.1,2.5l7.5,0.1l0,0c0.1-1,0.1-2,0-3c-0.2-1.5-0.5-3.1-0.8-4.6c-0.1-0.4-0.2-0.8-0.3-1C39.4,63,37,57.7,37,57.7
			C35.1,54,32.5,50.6,29.3,47.7z"/>
		<g>
			<path class="st0" d="M71.3,40.9L71.3,40.9C71.3,40.9,71.3,40.9,71.3,40.9C71.3,40.9,71.3,40.9,71.3,40.9z"/>
			<path class="st0" d="M71.8,48.3c0.2-0.1,0.4-0.1,0.7-0.2c0,0,0,0,0,0l-1.5-7.2c-2.2,0.4-5.4,1.8-7.2,2.9c0,0-4.6,2.9-6.3,4.3
				c0,0,0,0,0,0c-3.1,2.7-5.8,5.9-7.9,9.7c0,0,6.4,1.8,7.3,2.2c0.8-1.2,1.6-2.3,2.5-3.4c3.9-4.6,8.7-6.8,10-7.4
				C70.1,48.9,70.9,48.6,71.8,48.3z"/>
		</g>
	</g>
	<g>
		
			<linearGradient id="SVGID_1_" gradientUnits="userSpaceOnUse" x1="61.8446" y1="222.7284" x2="53.5251" y2="217.6134" gradientTransform="matrix(0.9999 1.429852e-02 -1.429852e-02 0.9999 -25.6968 -147.0072)">
			<stop  offset="0" style="stop-color:#019547"/>
			<stop  offset="0.2173" style="stop-color:#1D9D48"/>
			<stop  offset="0.6922" style="stop-color:#36AD4A"/>
			<stop  offset="1" style="stop-color:#3DB54A"/>
		</linearGradient>
		<path class="st1" d="M25.9,81.5c1.6,0.8,3.2,1.2,4.8,1.2c4.2,0.1,8.2-2.2,10.2-6.2c0.6-1.1,0.9-2.4,1.1-3.6l-7.5-0.1
			c0,0.1-0.1,0.3-0.2,0.4c-0.9,1.9-3.2,2.6-5.1,1.7c-1.9-0.9-2.6-3.2-1.7-5.1c0.1-0.2,0.2-0.3,0.3-0.5l-4.6-5.9
			c-0.9,0.9-1.7,1.9-2.3,3.1C18.2,72,20.4,78.8,25.9,81.5z"/>
		
			<linearGradient id="SVGID_2_" gradientUnits="userSpaceOnUse" x1="81.6467" y1="220.0075" x2="92.6675" y2="218.9368" gradientTransform="matrix(0.9999 1.429852e-02 -1.429852e-02 0.9999 -25.6968 -147.0072)">
			<stop  offset="6.060610e-03" style="stop-color:#FCEE23"/>
			<stop  offset="1" style="stop-color:#D7DF28"/>
		</linearGradient>
		<path class="st2" d="M60.7,73.6c-0.9,1.9-3.2,2.6-5.1,1.7c-0.9-0.5-1.6-1.3-1.9-2.2L46.1,73c0.4,3.8,2.6,7.2,6.1,8.9
			c1.6,0.8,3.2,1.2,4.8,1.2c4.2,0.1,8.2-2.2,10.2-6.2c2.2-4.5,1.2-9.8-2.3-13.1l-4.7,5.8C61.2,70.7,61.4,72.2,60.7,73.6z"/>
		
			<linearGradient id="SVGID_3_" gradientUnits="userSpaceOnUse" x1="39.8936" y1="192.4235" x2="40.6947" y2="201.6058" gradientTransform="matrix(0.9999 1.429852e-02 -1.429852e-02 0.9999 -25.6968 -147.0072)">
			<stop  offset="1.212120e-02" style="stop-color:#29AAE1"/>
			<stop  offset="8.923212e-02" style="stop-color:#27A4DD"/>
			<stop  offset="0.4873" style="stop-color:#238ACB"/>
			<stop  offset="0.7982" style="stop-color:#217BC0"/>
			<stop  offset="0.9818" style="stop-color:#2075BC"/>
		</linearGradient>
		<path class="st3" d="M4.8,45.6c-1.3,2.7-1.5,5.7-0.6,8.5c0.9,2.8,2.9,5.1,5.6,6.5c1.6,0.8,3.2,1.2,4.9,1.2c2.2,0,4.2-0.6,6-1.7
			l-4.6-6c-0.9,0.3-2,0.3-2.9-0.2c-1.9-0.9-2.6-3.2-1.7-5.1c0.7-1.4,2.2-2.2,3.6-2.1l1.8-7.2C12,38.7,7.1,41.1,4.8,45.6z"/>
		
			<linearGradient id="SVGID_4_" gradientUnits="userSpaceOnUse" x1="45.6758" y1="173.1411" x2="49.435" y2="165.9307" gradientTransform="matrix(0.9999 1.429852e-02 -1.429852e-02 0.9999 -25.6968 -147.0072)">
			<stop  offset="0" style="stop-color:#7F4FA0"/>
			<stop  offset="1" style="stop-color:#4C489E"/>
		</linearGradient>
		<path class="st4" d="M26,15c-2.7-1.3-5.7-1.5-8.5-0.6c-2.8,0.9-5.1,2.9-6.5,5.6c-1.3,2.7-1.5,5.7-0.6,8.5c0.9,2.8,2.9,5.1,5.6,6.5
			c0.6,0.3,1.1,0.5,1.7,0.7l1.8-7.2c-0.1,0-0.1,0-0.2-0.1c-1.9-0.9-2.6-3.2-1.7-5.1c0.9-1.9,3.2-2.6,5.1-1.7c0.7,0.4,1.3,1,1.7,1.7
			l6.7-3.1C30.1,18,28.3,16.2,26,15z"/>
		
			<linearGradient id="SVGID_5_" gradientUnits="userSpaceOnUse" x1="86.6274" y1="171.1901" x2="107.8585" y2="171.1901" gradientTransform="matrix(0.9999 1.429852e-02 -1.429852e-02 0.9999 -25.6968 -147.0072)">
			<stop  offset="0.1758" style="stop-color:#EF4237"/>
			<stop  offset="1" style="stop-color:#EC2227"/>
		</linearGradient>
		<path class="st5" d="M78.5,30.7c1.3-2.7,1.5-5.7,0.6-8.5c-0.9-2.8-2.9-5.1-5.6-6.5c-4.5-2.3-9.4-1-12,1.3
			c-1.7,1.4-2.5,2.9-2.9,3.8l6.6,3.3c0.1-0.3,0.3-0.5,0.4-0.7c1-1.3,3-1.9,4.7-1c1.9,0.9,2.6,3.2,1.7,5.1c-0.5,1-1.3,1.6-2.3,1.9
			l1.5,7.3C74.3,35.8,77,33.7,78.5,30.7z"/>
		
			<linearGradient id="SVGID_6_" gradientUnits="userSpaceOnUse" x1="78.8037" y1="158.8412" x2="70.7306" y2="157.1156" gradientTransform="matrix(0.9999 1.429852e-02 -1.429852e-02 0.9999 -25.6968 -147.0072)">
			<stop  offset="0.2727" style="stop-color:#EB0D8C"/>
			<stop  offset="0.9818" style="stop-color:#BE202E"/>
		</linearGradient>
		<path class="st6" d="M41.4,15c-1-3.2,2.3-6.1,5.3-4.6c1.9,0.9,2.6,3.2,1.7,5.1c0,0,0,0.1-0.1,0.1l6.6,3.3c0,0,0-0.1,0.1-0.1
			c2.8-5.5,0.5-12.2-5-15c-5.5-2.8-12.2-0.5-15,5c-1.5,3-1.5,6.6-0.1,9.7l6.7-3.1C41.5,15.3,41.4,15.1,41.4,15z"/>
		
			<linearGradient id="SVGID_7_" gradientUnits="userSpaceOnUse" x1="105.1932" y1="191.854" x2="105.0699" y2="198.6329" gradientTransform="matrix(0.9999 1.429852e-02 -1.429852e-02 0.9999 -25.6968 -147.0072)">
			<stop  offset="6.060640e-03" style="stop-color:#FBB042"/>
			<stop  offset="0.9212" style="stop-color:#F89521"/>
		</linearGradient>
		<path class="st7" d="M79,41.5c-2.1-1.1-4.5-1.3-6.6-1c-0.2,0-0.3,0-0.5,0.1l1.5,7.2c0.8-0.1,1.5,0,2.2,0.4
			c1.9,0.9,2.6,3.2,1.7,5.1c-0.9,1.8-3.2,2.6-5,1.7l-4.7,5.8c1.8,1.3,4,2,6.2,2c4.1,0.1,8.1-2.1,10.2-6.2c1.3-2.7,1.5-5.7,0.6-8.5
			C83.7,45.1,81.7,42.8,79,41.5z"/>
		
			<linearGradient id="SVGID_8_" gradientUnits="userSpaceOnUse" x1="48.3808" y1="191.9274" x2="68.3491" y2="216.5181" gradientTransform="matrix(0.9999 1.429852e-02 -1.429852e-02 0.9999 -25.6968 -147.0072)">
			<stop  offset="0" style="stop-color:#29AAE1"/>
			<stop  offset="1" style="stop-color:#019547"/>
		</linearGradient>
		<path class="st8" d="M23.3,42.2c-1.2-0.7-2.5-1.3-3.9-1.8c-0.9-0.4-1.7-0.7-2.6-0.8l-1.8,7.2c0,0-0.1,0-0.1,0c0.3,0,0.5,0,0.8,0.1
			c1.1,0.4,2.2,0.8,3.2,1.4C21.2,46.1,22.5,43.8,23.3,42.2z"/>
		
			<linearGradient id="SVGID_9_" gradientUnits="userSpaceOnUse" x1="55.1362" y1="176.05" x2="47.9261" y2="197.7726" gradientTransform="matrix(0.9999 1.429852e-02 -1.429852e-02 0.9999 -25.6968 -147.0072)">
			<stop  offset="0" style="stop-color:#4C489E"/>
			<stop  offset="0.9455" style="stop-color:#2075BC"/>
		</linearGradient>
		<path class="st9" d="M31.1,20.2l-6.7,3.1c0.1,0.3,0.2,0.6,0.3,0.9c0.1,0.3,0.4,1.1,0.7,2.5c3,0.3,5.6,0,7.4-0.5
			c-0.4-2-0.9-3.9-1.3-5c-0.3-1-0.8-1.9-1.4-2.7C30.6,19.2,30.9,19.7,31.1,20.2z"/>
		<path class="st10" d="M64.6,36.9c1.3,0.1,2.6,0.1,4.1,0c0.8,0,1.6-0.1,2.4-0.3l-1.5-7.3l0,0c-0.4,0.1-0.8,0.2-1.2,0.2
			c-0.2,0-1.3,0-2.6,0C64.9,32.4,64.6,35.1,64.6,36.9z"/>
		
			<linearGradient id="SVGID_10_" gradientUnits="userSpaceOnUse" x1="56.3705" y1="210.9499" x2="78.6792" y2="205.7117" gradientTransform="matrix(0.9999 1.429852e-02 -1.429852e-02 0.9999 -25.6968 -147.0072)">
			<stop  offset="0" style="stop-color:#3DB54A"/>
			<stop  offset="0.5568" style="stop-color:#229F49"/>
			<stop  offset="1" style="stop-color:#019547"/>
		</linearGradient>
		<path class="st11" d="M25.3,61.8c-0.8,0.4-1.5,1-2.1,1.6l4.6,5.9c0.3-0.4,0.7-0.8,1.1-1.1c0.9-0.5,1.8-1,2.8-1.5
			c-0.3-3-1.2-5.5-2-7.2C28.2,60.3,26.7,61,25.3,61.8z"/>
		
			<linearGradient id="SVGID_11_" gradientUnits="userSpaceOnUse" x1="79.9495" y1="214.4678" x2="101.3224" y2="192.6971" gradientTransform="matrix(0.9999 1.429852e-02 -1.429852e-02 0.9999 -25.6968 -147.0072)">
			<stop  offset="6.060610e-03" style="stop-color:#FCEE23"/>
			<stop  offset="0.9939" style="stop-color:#FBB042"/>
		</linearGradient>
		<path class="st12" d="M46.1,73l7.5,0.1c-0.1-0.4-0.2-0.7-0.2-1.1c0.1-1.2,0.4-2.4,0.6-3.6c-2.6-1.6-5.1-2.4-6.9-2.8
			c-0.4,1.4-0.7,2.8-0.9,4.3c-0.2,0.6-0.2,1.5-0.2,1.9c0,0.8,0.1,1.5,0.2,2.2C46.2,73.6,46.2,73.3,46.1,73z"/>
		
			<linearGradient id="SVGID_12_" gradientUnits="userSpaceOnUse" x1="50.3587" y1="180.2775" x2="79.3862" y2="164.9318" gradientTransform="matrix(0.9999 1.429852e-02 -1.429852e-02 0.9999 -25.6968 -147.0072)">
			<stop  offset="0.1939" style="stop-color:#7F4FA0"/>
			<stop  offset="0.9758" style="stop-color:#EB0D8C"/>
		</linearGradient>
		<path class="st13" d="M48.3,15.7c-0.5,0.9-1.2,1.9-2,2.8c1.6,2.6,3.5,4.4,5,5.5c1.3-1.5,2.8-3.4,3.7-5.2c0,0,0,0.1-0.1,0.1
			L48.3,15.7z"/>
		
			<linearGradient id="SVGID_13_" gradientUnits="userSpaceOnUse" x1="87.223" y1="171.7797" x2="97.2067" y2="204.0725" gradientTransform="matrix(0.9999 1.429852e-02 -1.429852e-02 0.9999 -25.6968 -147.0072)">
			<stop  offset="0.1758" style="stop-color:#EF4237"/>
			<stop  offset="0.9212" style="stop-color:#F89521"/>
		</linearGradient>
		<path class="st14" d="M72.4,54.9C72.4,54.9,72.4,54.9,72.4,54.9c-0.9-0.4-2-1.7-3-2.9c-2.8,1-5,2.4-6.5,3.6
			c1.5,2.1,3.1,3.7,3.6,4.1c0.4,0.4,0.8,0.7,1.2,1L72.4,54.9z"/>
		
			<linearGradient id="SVGID_14_" gradientUnits="userSpaceOnUse" x1="87.0328" y1="171.8393" x2="97.0164" y2="204.1319" gradientTransform="matrix(0.9999 1.429852e-02 -1.429852e-02 0.9999 -25.6968 -147.0072)">
			<stop  offset="0.1758" style="stop-color:#EF4237"/>
			<stop  offset="0.9212" style="stop-color:#F89521"/>
		</linearGradient>
		<path class="st15" d="M55.9,35.5c0.2,4.1,1,8.3,2.6,12.2c0,0,0,0,0,0c1.7-1.5,6.3-4.3,6.3-4.3c-0.5-1.6-0.9-3.2-1.2-4.8
			c-1.1-6.2,0.5-12.2,1.5-14.5l-6.6-3.3c0,0.1-0.1,0.2-0.1,0.2c-0.9,1.9-1.6,4.8-2,6.8C56.5,27.5,55.9,32.7,55.9,35.5z"/>
		
			<linearGradient id="SVGID_15_" gradientUnits="userSpaceOnUse" x1="67.8398" y1="205.5422" x2="86.2661" y2="209.7944" gradientTransform="matrix(0.9999 1.429852e-02 -1.429852e-02 0.9999 -25.6968 -147.0072)">
			<stop  offset="0" style="stop-color:#3DB54A"/>
			<stop  offset="8.528042e-02" style="stop-color:#55B949"/>
			<stop  offset="0.5216" style="stop-color:#A0CC3D"/>
			<stop  offset="0.838" style="stop-color:#C8DA2F"/>
			<stop  offset="1" style="stop-color:#D7DF28"/>
		</linearGradient>
		<path class="st16" d="M58.5,68.2L58.5,68.2c0.3,0.2,0.5,0.3,0.7,0.4c0.5,0.3,0.8,0.6,1.1,1c0,0,0,0,0,0l4.7-5.8c0,0,0,0,0,0
			c-0.4-0.3-0.7-0.7-1.2-1c-0.6-0.5-3.1-2.1-6-3.3c-0.9-0.4-7.3-2.2-7.3-2.2c-4.1-0.8-8.4-0.8-12.5-0.2c0,0,2.4,5.3,2.8,7.1
			c5.3-0.5,10.1,0.3,14.6,2.3C56.8,67.2,57.9,67.8,58.5,68.2z"/>
		
			<linearGradient id="SVGID_16_" gradientUnits="userSpaceOnUse" x1="50.566" y1="180.6659" x2="79.5916" y2="165.3211" gradientTransform="matrix(0.9999 1.429852e-02 -1.429852e-02 0.9999 -25.6968 -147.0072)">
			<stop  offset="0.1939" style="stop-color:#7F4FA0"/>
			<stop  offset="0.9758" style="stop-color:#EB0D8C"/>
		</linearGradient>
		<path class="st17" d="M39.1,24.7c-1.5,0.9-3,1.6-4.5,2.3c-3.2,1.3-6.4,1.8-8.8,1.9c0,0,0,0,0,0c-1.5,0.1-4.9,0.1-6.3-0.5
			c0,0,0,0,0,0l-1.8,7.2c1.8,0.5,3.8,0.7,5.7,0.7c0.8,0,1.6,0,2.3,0c3.8-0.3,7.5-1.2,7.5-1.2c4.1-1.1,7.9-2.9,11.4-5.3
			C42.4,28.3,39.1,24.7,39.1,24.7z"/>
		
			<linearGradient id="SVGID_17_" gradientUnits="userSpaceOnUse" x1="58.41" y1="177.1364" x2="51.5117" y2="197.9197" gradientTransform="matrix(0.9999 1.429852e-02 -1.429852e-02 0.9999 -25.6968 -147.0072)">
			<stop  offset="0" style="stop-color:#4C489E"/>
			<stop  offset="1" style="stop-color:#2075BC"/>
		</linearGradient>
		<path class="st18" d="M24.7,41.7c-2.2,6.9-6.8,11.2-6.8,11.2l0,0c-0.1,0.1-0.3,0.3-0.4,0.4c-0.4,0.4-0.9,0.7-1.4,0.9l4.6,6
			c0.7-0.4,1.3-0.9,1.9-1.5c1.5-1.5,2.9-3.1,4.1-4.7c1.9-2.6,3.8-6.7,3.8-6.6c1.7-4,2.7-8.1,3-12.2c0,0-3.7,0.9-7.5,1.2
			C25.5,39.1,24.9,40.8,24.7,41.7z"/>
		
			<linearGradient id="SVGID_18_" gradientUnits="userSpaceOnUse" x1="68.102" y1="163.4161" x2="82.769" y2="179.8702" gradientTransform="matrix(0.9999 1.429852e-02 -1.429852e-02 0.9999 -25.6968 -147.0072)">
			<stop  offset="0" style="stop-color:#BE202E"/>
			<stop  offset="0.4182" style="stop-color:#CC212C"/>
			<stop  offset="1" style="stop-color:#EC2227"/>
		</linearGradient>
		<path class="st19" d="M56.5,27.9c-1.8-0.7-3.2-1.4-4.4-2c-3.2-1.7-5.6-4-7.2-5.8c0,0,0,0,0,0c-1-1.1-2.7-3.2-3.4-4.7l-6.7,3.1
			c-0.4-0.8-0.2-0.2,0.4,0.8c0.5,1.2,2.6,4,3.9,5.4c0,0,3.3,3.6,5.6,5.2c3.4,2.5,7.2,4.4,11.2,5.6C55.9,32.7,56.5,27.5,56.5,27.9z"
			/>
		
			<linearGradient id="SVGID_19_" gradientUnits="userSpaceOnUse" x1="60.7883" y1="199.9079" x2="66.0882" y2="217.4096" gradientTransform="matrix(0.9999 1.429852e-02 -1.429852e-02 0.9999 -25.6968 -147.0072)">
			<stop  offset="0" style="stop-color:#29AAE1"/>
			<stop  offset="1" style="stop-color:#019547"/>
		</linearGradient>
		<path class="st20" d="M30.4,47.3c0-0.1-1.9,4-3.8,6.6c1.5,1.5,2.9,3.3,4.1,5.3c0,0,0,0,0,0c3.3,5.5,3.8,10.3,3.9,11.1c0,0,0,0,0,0
			c0.1,0.8,0.2,1.6-0.1,2.5l7.5,0.1l0,0c0.1-1,0.1-2,0-3c-0.2-1.5-0.5-3.1-0.8-4.6c-0.1-0.4-0.2-0.8-0.3-1c-0.4-1.8-2.8-7.1-2.8-7.1
			C36.2,53.6,33.6,50.2,30.4,47.3z"/>
		<g>
			
				<linearGradient id="SVGID_20_" gradientUnits="userSpaceOnUse" x1="78.3752" y1="208.8137" x2="97.7169" y2="189.112" gradientTransform="matrix(0.9999 1.429852e-02 -1.429852e-02 0.9999 -25.6968 -147.0072)">
				<stop  offset="6.060610e-03" style="stop-color:#FCEE23"/>
				<stop  offset="0.9939" style="stop-color:#FBB042"/>
			</linearGradient>
			<path class="st21" d="M72.4,40.4L72.4,40.4C72.4,40.4,72.4,40.4,72.4,40.4C72.4,40.4,72.4,40.4,72.4,40.4z"/>
			
				<linearGradient id="SVGID_21_" gradientUnits="userSpaceOnUse" x1="78.938" y1="209.187" x2="98.2025" y2="189.564" gradientTransform="matrix(0.9999 1.429852e-02 -1.429852e-02 0.9999 -25.6968 -147.0072)">
				<stop  offset="6.060610e-03" style="stop-color:#FCEE23"/>
				<stop  offset="0.9939" style="stop-color:#FBB042"/>
			</linearGradient>
			<path class="st22" d="M72.9,47.9c0.2-0.1,0.4-0.1,0.7-0.2c0,0,0,0,0,0L72,40.5c-2.2,0.4-5.4,1.8-7.2,2.9c0,0-4.6,2.9-6.3,4.3
				c0,0,0,0,0,0c-3.1,2.7-5.8,5.9-7.9,9.7c0,0,6.4,1.8,7.3,2.2c0.8-1.2,1.6-2.3,2.5-3.4c3.9-4.6,8.7-6.8,10-7.4
				C71.2,48.5,72,48.2,72.9,47.9z"/>
		</g>
	</g>
</g>
<g>
	<path class="st23" d="M115,27.9l-2.3,5.6H97.8c-1.1,0-1.9,0.3-2.5,1c-0.6,0.6-0.9,1.5-0.9,2.6c0,1.6,1.1,2.8,3.4,3.6
		c1.4,0.4,3.4,0.7,6.2,1.2s5.2,1.1,7.3,2.1c4.1,1.9,6.2,4.9,6.1,9.1c0,2.9-1.2,5.2-3.4,6.7c-2,1.4-4.3,2-7.1,2H85.9l2.3-5.6h17.7
		c1,0,1.8-0.2,2.4-0.6c0.7-0.5,1-1.3,1.1-2.6c0-1.8-0.8-3.1-2.6-3.9c-1.4-0.7-3.7-1.2-6.9-1.8S94.2,46,92.1,45
		c-3.5-1.6-5.2-4.3-5.2-7.9c0-2.8,1.1-5,3.2-6.8c2-1.6,4.4-2.4,7.2-2.4H115z"/>
	<path class="st23" d="M124.8,57.2c-3.3-3.3-4.9-7.4-4.9-12.4h0c0-5.1,1.6-9.3,4.9-12.6c3.5-3.5,8.5-5.2,15-5.2
		c6.5,0,11.5,1.7,15,5.2c3.3,3.3,4.9,7.5,4.9,12.6c0,5-1.6,9.1-4.9,12.4c-3.5,3.5-8.5,5.2-15,5.2C133.2,62.4,128.3,60.7,124.8,57.2z
		 M149.3,53.8c2.3-2.2,3.4-5.2,3.4-8.9c0-3.9-1.1-6.9-3.4-9.2c-2.1-2.1-5.2-3.1-9.5-3.1c-4.3,0-7.5,1-9.6,3.1
		c-2.3,2.3-3.4,5.3-3.4,9.2c0,3.7,1.1,6.7,3.4,8.9c2.1,2.1,5.2,3.1,9.6,3.1C144,56.9,147.2,55.8,149.3,53.8z"/>
	<path class="st23" d="M184.3,56.2h13.1l-2.8,5.6h-13.7c-5,0-9.2-1.7-12.7-5.2c-3.3-3.3-4.9-7.2-4.9-11.7c0-4.5,1.6-8.4,4.9-11.7
		c3.5-3.5,7.7-5.2,12.7-5.2h16.5l-2.3,5.6h-10.8h-3.4c-2.8,0-5.2,1-7.3,3.1c-2.3,2.3-3.4,5-3.4,8.2c0,3.3,1.1,6,3.4,8.2
		c2.1,2.1,4.5,3.1,7.3,3.1H184.3z"/>
	<path class="st23" d="M208.9,61.7h-7V27.9h7V61.7z"/>
	<path class="st23" d="M237.7,56.4l2.8,5.3h-27.9l16.8-33.8h4.7l16.8,33.8h-7.5l-11.7-24.2l-9.2,18.9H237.7z"/>
	<path class="st23" d="M253.5,61.7V27.9h7v33.8H253.5z M263.8,56.2l-2.8,5.6h17.4l2.3-5.6H263.8z"/>
	<path class="st23" d="M307.3,59.1l-16.5-19.3v22h-6.8V27.9h5.3l18.1,21.3V59.1z M309.2,27.9h6.8v33.8h-6.8V27.9z"/>
	<path class="st23" d="M327.9,33.5v28.2h-7V27.9h25.9l-2.3,5.6H327.9z M329.3,47.6v-5.6h16.4l-2.8,5.6H329.3z"/>
	<path class="st23" d="M367.4,33.5v28.2h-7V33.5h-13.3l2.3-5.6h31.2l-2.3,5.6H367.4z"/>
</g>
<g>
</g>
<g>
</g>
<g>
</g>
<g>
</g>
<g>
</g>
<g>
</g>
</svg>
